<?xml version="1.0" encoding="utf-8" standalone="no"?>
<!DOCTYPE svg PUBLIC "-//W3C//DTD SVG 1.1//EN"
  "http://www.w3.org/Graphics/SVG/1.1/DTD/svg11.dtd">
<svg xmlns:xlink="http://www.w3.org/1999/xlink" width="864pt" height="266.990683pt" viewBox="0 0 864 266.990683" xmlns="http://www.w3.org/2000/svg" version="1.1">
 <metadata>
  <rdf:RDF xmlns:dc="http://purl.org/dc/elements/1.1/" xmlns:cc="http://creativecommons.org/ns#" xmlns:rdf="http://www.w3.org/1999/02/22-rdf-syntax-ns#">
   <cc:Work>
    <dc:type rdf:resource="http://purl.org/dc/dcmitype/StillImage"/>
    <dc:date>2024-10-23T11:57:06.417012</dc:date>
    <dc:format>image/svg+xml</dc:format>
    <dc:creator>
     <cc:Agent>
      <dc:title>Matplotlib v3.8.0, https://matplotlib.org/</dc:title>
     </cc:Agent>
    </dc:creator>
   </cc:Work>
  </rdf:RDF>
 </metadata>
 <defs>
  <style type="text/css">*{stroke-linejoin: round; stroke-linecap: butt}</style>
 </defs>
 <g id="figure_1">
  <g id="patch_1">
   <path d="M 0 266.990683 
L 864 266.990683 
L 864 0 
L 0 0 
z
" style="fill: #ffffff"/>
  </g>
  <g id="axes_1">
   <g id="patch_2">
    <path d="M 82.645 177.051308 
L 409.822344 177.051308 
L 409.822344 25.92 
L 82.645 25.92 
z
" style="fill: #ffffff"/>
   </g>
   <g id="matplotlib.axis_1">
    <g id="xtick_1">
     <g id="line2d_1">
      <defs>
       <path id="m533a1b61e9" d="M 0 0 
L 0 12 
" style="stroke: #262626; stroke-width: 2.5"/>
      </defs>
      <g>
       <use xlink:href="#m533a1b61e9" x="97.516697" y="177.051308" style="fill: #262626; stroke: #262626; stroke-width: 2.5"/>
      </g>
     </g>
     <g id="text_1">
      <!-- 0.0 -->
      <g style="fill: #262626" transform="translate(80.02326 209.267871) scale(0.22 -0.22)">
       <defs>
        <path id="DejaVuSans-30" d="M 2034 4250 
Q 1547 4250 1301 3770 
Q 1056 3291 1056 2328 
Q 1056 1369 1301 889 
Q 1547 409 2034 409 
Q 2525 409 2770 889 
Q 3016 1369 3016 2328 
Q 3016 3291 2770 3770 
Q 2525 4250 2034 4250 
z
M 2034 4750 
Q 2819 4750 3233 4129 
Q 3647 3509 3647 2328 
Q 3647 1150 3233 529 
Q 2819 -91 2034 -91 
Q 1250 -91 836 529 
Q 422 1150 422 2328 
Q 422 3509 836 4129 
Q 1250 4750 2034 4750 
z
" transform="scale(0.015625)"/>
        <path id="DejaVuSans-2e" d="M 684 794 
L 1344 794 
L 1344 0 
L 684 0 
L 684 794 
z
" transform="scale(0.015625)"/>
       </defs>
       <use xlink:href="#DejaVuSans-30"/>
       <use xlink:href="#DejaVuSans-2e" x="63.623047"/>
       <use xlink:href="#DejaVuSans-30" x="95.410156"/>
      </g>
     </g>
    </g>
    <g id="xtick_2">
     <g id="line2d_2">
      <g>
       <use xlink:href="#m533a1b61e9" x="190.464806" y="177.051308" style="fill: #262626; stroke: #262626; stroke-width: 2.5"/>
      </g>
     </g>
     <g id="text_2">
      <!-- 2.5 -->
      <g style="fill: #262626" transform="translate(172.971369 209.267871) scale(0.22 -0.22)">
       <defs>
        <path id="DejaVuSans-32" d="M 1228 531 
L 3431 531 
L 3431 0 
L 469 0 
L 469 531 
Q 828 903 1448 1529 
Q 2069 2156 2228 2338 
Q 2531 2678 2651 2914 
Q 2772 3150 2772 3378 
Q 2772 3750 2511 3984 
Q 2250 4219 1831 4219 
Q 1534 4219 1204 4116 
Q 875 4013 500 3803 
L 500 4441 
Q 881 4594 1212 4672 
Q 1544 4750 1819 4750 
Q 2544 4750 2975 4387 
Q 3406 4025 3406 3419 
Q 3406 3131 3298 2873 
Q 3191 2616 2906 2266 
Q 2828 2175 2409 1742 
Q 1991 1309 1228 531 
z
" transform="scale(0.015625)"/>
        <path id="DejaVuSans-35" d="M 691 4666 
L 3169 4666 
L 3169 4134 
L 1269 4134 
L 1269 2991 
Q 1406 3038 1543 3061 
Q 1681 3084 1819 3084 
Q 2600 3084 3056 2656 
Q 3513 2228 3513 1497 
Q 3513 744 3044 326 
Q 2575 -91 1722 -91 
Q 1428 -91 1123 -41 
Q 819 9 494 109 
L 494 744 
Q 775 591 1075 516 
Q 1375 441 1709 441 
Q 2250 441 2565 725 
Q 2881 1009 2881 1497 
Q 2881 1984 2565 2268 
Q 2250 2553 1709 2553 
Q 1456 2553 1204 2497 
Q 953 2441 691 2322 
L 691 4666 
z
" transform="scale(0.015625)"/>
       </defs>
       <use xlink:href="#DejaVuSans-32"/>
       <use xlink:href="#DejaVuSans-2e" x="63.623047"/>
       <use xlink:href="#DejaVuSans-35" x="95.410156"/>
      </g>
     </g>
    </g>
    <g id="xtick_3">
     <g id="line2d_3">
      <g>
       <use xlink:href="#m533a1b61e9" x="283.412915" y="177.051308" style="fill: #262626; stroke: #262626; stroke-width: 2.5"/>
      </g>
     </g>
     <g id="text_3">
      <!-- 5.0 -->
      <g style="fill: #262626" transform="translate(265.919478 209.267871) scale(0.22 -0.22)">
       <use xlink:href="#DejaVuSans-35"/>
       <use xlink:href="#DejaVuSans-2e" x="63.623047"/>
       <use xlink:href="#DejaVuSans-30" x="95.410156"/>
      </g>
     </g>
    </g>
    <g id="xtick_4">
     <g id="line2d_4">
      <g>
       <use xlink:href="#m533a1b61e9" x="376.361025" y="177.051308" style="fill: #262626; stroke: #262626; stroke-width: 2.5"/>
      </g>
     </g>
     <g id="text_4">
      <!-- 7.5 -->
      <g style="fill: #262626" transform="translate(358.867587 209.267871) scale(0.22 -0.22)">
       <defs>
        <path id="DejaVuSans-37" d="M 525 4666 
L 3525 4666 
L 3525 4397 
L 1831 0 
L 1172 0 
L 2766 4134 
L 525 4134 
L 525 4666 
z
" transform="scale(0.015625)"/>
       </defs>
       <use xlink:href="#DejaVuSans-37"/>
       <use xlink:href="#DejaVuSans-2e" x="63.623047"/>
       <use xlink:href="#DejaVuSans-35" x="95.410156"/>
      </g>
     </g>
    </g>
    <g id="text_5">
     <!-- Time (s) -->
     <g style="fill: #262626" transform="translate(197.444297 236.079433) scale(0.24 -0.24)">
      <defs>
       <path id="DejaVuSans-54" d="M -19 4666 
L 3928 4666 
L 3928 4134 
L 2272 4134 
L 2272 0 
L 1638 0 
L 1638 4134 
L -19 4134 
L -19 4666 
z
" transform="scale(0.015625)"/>
       <path id="DejaVuSans-69" d="M 603 3500 
L 1178 3500 
L 1178 0 
L 603 0 
L 603 3500 
z
M 603 4863 
L 1178 4863 
L 1178 4134 
L 603 4134 
L 603 4863 
z
" transform="scale(0.015625)"/>
       <path id="DejaVuSans-6d" d="M 3328 2828 
Q 3544 3216 3844 3400 
Q 4144 3584 4550 3584 
Q 5097 3584 5394 3201 
Q 5691 2819 5691 2113 
L 5691 0 
L 5113 0 
L 5113 2094 
Q 5113 2597 4934 2840 
Q 4756 3084 4391 3084 
Q 3944 3084 3684 2787 
Q 3425 2491 3425 1978 
L 3425 0 
L 2847 0 
L 2847 2094 
Q 2847 2600 2669 2842 
Q 2491 3084 2119 3084 
Q 1678 3084 1418 2786 
Q 1159 2488 1159 1978 
L 1159 0 
L 581 0 
L 581 3500 
L 1159 3500 
L 1159 2956 
Q 1356 3278 1631 3431 
Q 1906 3584 2284 3584 
Q 2666 3584 2933 3390 
Q 3200 3197 3328 2828 
z
" transform="scale(0.015625)"/>
       <path id="DejaVuSans-65" d="M 3597 1894 
L 3597 1613 
L 953 1613 
Q 991 1019 1311 708 
Q 1631 397 2203 397 
Q 2534 397 2845 478 
Q 3156 559 3463 722 
L 3463 178 
Q 3153 47 2828 -22 
Q 2503 -91 2169 -91 
Q 1331 -91 842 396 
Q 353 884 353 1716 
Q 353 2575 817 3079 
Q 1281 3584 2069 3584 
Q 2775 3584 3186 3129 
Q 3597 2675 3597 1894 
z
M 3022 2063 
Q 3016 2534 2758 2815 
Q 2500 3097 2075 3097 
Q 1594 3097 1305 2825 
Q 1016 2553 972 2059 
L 3022 2063 
z
" transform="scale(0.015625)"/>
       <path id="DejaVuSans-20" transform="scale(0.015625)"/>
       <path id="DejaVuSans-28" d="M 1984 4856 
Q 1566 4138 1362 3434 
Q 1159 2731 1159 2009 
Q 1159 1288 1364 580 
Q 1569 -128 1984 -844 
L 1484 -844 
Q 1016 -109 783 600 
Q 550 1309 550 2009 
Q 550 2706 781 3412 
Q 1013 4119 1484 4856 
L 1984 4856 
z
" transform="scale(0.015625)"/>
       <path id="DejaVuSans-73" d="M 2834 3397 
L 2834 2853 
Q 2591 2978 2328 3040 
Q 2066 3103 1784 3103 
Q 1356 3103 1142 2972 
Q 928 2841 928 2578 
Q 928 2378 1081 2264 
Q 1234 2150 1697 2047 
L 1894 2003 
Q 2506 1872 2764 1633 
Q 3022 1394 3022 966 
Q 3022 478 2636 193 
Q 2250 -91 1575 -91 
Q 1294 -91 989 -36 
Q 684 19 347 128 
L 347 722 
Q 666 556 975 473 
Q 1284 391 1588 391 
Q 1994 391 2212 530 
Q 2431 669 2431 922 
Q 2431 1156 2273 1281 
Q 2116 1406 1581 1522 
L 1381 1569 
Q 847 1681 609 1914 
Q 372 2147 372 2553 
Q 372 3047 722 3315 
Q 1072 3584 1716 3584 
Q 2034 3584 2315 3537 
Q 2597 3491 2834 3397 
z
" transform="scale(0.015625)"/>
       <path id="DejaVuSans-29" d="M 513 4856 
L 1013 4856 
Q 1481 4119 1714 3412 
Q 1947 2706 1947 2009 
Q 1947 1309 1714 600 
Q 1481 -109 1013 -844 
L 513 -844 
Q 928 -128 1133 580 
Q 1338 1288 1338 2009 
Q 1338 2731 1133 3434 
Q 928 4138 513 4856 
z
" transform="scale(0.015625)"/>
      </defs>
      <use xlink:href="#DejaVuSans-54"/>
      <use xlink:href="#DejaVuSans-69" x="57.958984"/>
      <use xlink:href="#DejaVuSans-6d" x="85.742188"/>
      <use xlink:href="#DejaVuSans-65" x="183.154297"/>
      <use xlink:href="#DejaVuSans-20" x="244.677734"/>
      <use xlink:href="#DejaVuSans-28" x="276.464844"/>
      <use xlink:href="#DejaVuSans-73" x="315.478516"/>
      <use xlink:href="#DejaVuSans-29" x="367.578125"/>
     </g>
    </g>
   </g>
   <g id="matplotlib.axis_2">
    <g id="ytick_1">
     <g id="line2d_5">
      <defs>
       <path id="mf885ce7a76" d="M 0 0 
L -12 0 
" style="stroke: #262626; stroke-width: 2.5"/>
      </defs>
      <g>
       <use xlink:href="#mf885ce7a76" x="82.645" y="169.409118" style="fill: #262626; stroke: #262626; stroke-width: 2.5"/>
      </g>
     </g>
     <g id="text_6">
      <!-- 0.0 -->
      <g style="fill: #262626" transform="translate(32.158125 177.767399) scale(0.22 -0.22)">
       <use xlink:href="#DejaVuSans-30"/>
       <use xlink:href="#DejaVuSans-2e" x="63.623047"/>
       <use xlink:href="#DejaVuSans-30" x="95.410156"/>
      </g>
     </g>
    </g>
    <g id="ytick_2">
     <g id="line2d_6">
      <g>
       <use xlink:href="#mf885ce7a76" x="82.645" y="116.614641" style="fill: #262626; stroke: #262626; stroke-width: 2.5"/>
      </g>
     </g>
     <g id="text_7">
      <!-- 2.5 -->
      <g style="fill: #262626" transform="translate(32.158125 124.972923) scale(0.22 -0.22)">
       <use xlink:href="#DejaVuSans-32"/>
       <use xlink:href="#DejaVuSans-2e" x="63.623047"/>
       <use xlink:href="#DejaVuSans-35" x="95.410156"/>
      </g>
     </g>
    </g>
    <g id="ytick_3">
     <g id="line2d_7">
      <g>
       <use xlink:href="#mf885ce7a76" x="82.645" y="63.820165" style="fill: #262626; stroke: #262626; stroke-width: 2.5"/>
      </g>
     </g>
     <g id="text_8">
      <!-- 5.0 -->
      <g style="fill: #262626" transform="translate(32.158125 72.178447) scale(0.22 -0.22)">
       <use xlink:href="#DejaVuSans-35"/>
       <use xlink:href="#DejaVuSans-2e" x="63.623047"/>
       <use xlink:href="#DejaVuSans-30" x="95.410156"/>
      </g>
     </g>
    </g>
    <g id="text_9">
     <!-- Sample Overlap (Hz) -->
     <g style="fill: #262626" transform="translate(23.166875 225.966904) rotate(-90) scale(0.24 -0.24)">
      <defs>
       <path id="DejaVuSans-53" d="M 3425 4513 
L 3425 3897 
Q 3066 4069 2747 4153 
Q 2428 4238 2131 4238 
Q 1616 4238 1336 4038 
Q 1056 3838 1056 3469 
Q 1056 3159 1242 3001 
Q 1428 2844 1947 2747 
L 2328 2669 
Q 3034 2534 3370 2195 
Q 3706 1856 3706 1288 
Q 3706 609 3251 259 
Q 2797 -91 1919 -91 
Q 1588 -91 1214 -16 
Q 841 59 441 206 
L 441 856 
Q 825 641 1194 531 
Q 1563 422 1919 422 
Q 2459 422 2753 634 
Q 3047 847 3047 1241 
Q 3047 1584 2836 1778 
Q 2625 1972 2144 2069 
L 1759 2144 
Q 1053 2284 737 2584 
Q 422 2884 422 3419 
Q 422 4038 858 4394 
Q 1294 4750 2059 4750 
Q 2388 4750 2728 4690 
Q 3069 4631 3425 4513 
z
" transform="scale(0.015625)"/>
       <path id="DejaVuSans-61" d="M 2194 1759 
Q 1497 1759 1228 1600 
Q 959 1441 959 1056 
Q 959 750 1161 570 
Q 1363 391 1709 391 
Q 2188 391 2477 730 
Q 2766 1069 2766 1631 
L 2766 1759 
L 2194 1759 
z
M 3341 1997 
L 3341 0 
L 2766 0 
L 2766 531 
Q 2569 213 2275 61 
Q 1981 -91 1556 -91 
Q 1019 -91 701 211 
Q 384 513 384 1019 
Q 384 1609 779 1909 
Q 1175 2209 1959 2209 
L 2766 2209 
L 2766 2266 
Q 2766 2663 2505 2880 
Q 2244 3097 1772 3097 
Q 1472 3097 1187 3025 
Q 903 2953 641 2809 
L 641 3341 
Q 956 3463 1253 3523 
Q 1550 3584 1831 3584 
Q 2591 3584 2966 3190 
Q 3341 2797 3341 1997 
z
" transform="scale(0.015625)"/>
       <path id="DejaVuSans-70" d="M 1159 525 
L 1159 -1331 
L 581 -1331 
L 581 3500 
L 1159 3500 
L 1159 2969 
Q 1341 3281 1617 3432 
Q 1894 3584 2278 3584 
Q 2916 3584 3314 3078 
Q 3713 2572 3713 1747 
Q 3713 922 3314 415 
Q 2916 -91 2278 -91 
Q 1894 -91 1617 61 
Q 1341 213 1159 525 
z
M 3116 1747 
Q 3116 2381 2855 2742 
Q 2594 3103 2138 3103 
Q 1681 3103 1420 2742 
Q 1159 2381 1159 1747 
Q 1159 1113 1420 752 
Q 1681 391 2138 391 
Q 2594 391 2855 752 
Q 3116 1113 3116 1747 
z
" transform="scale(0.015625)"/>
       <path id="DejaVuSans-6c" d="M 603 4863 
L 1178 4863 
L 1178 0 
L 603 0 
L 603 4863 
z
" transform="scale(0.015625)"/>
       <path id="DejaVuSans-4f" d="M 2522 4238 
Q 1834 4238 1429 3725 
Q 1025 3213 1025 2328 
Q 1025 1447 1429 934 
Q 1834 422 2522 422 
Q 3209 422 3611 934 
Q 4013 1447 4013 2328 
Q 4013 3213 3611 3725 
Q 3209 4238 2522 4238 
z
M 2522 4750 
Q 3503 4750 4090 4092 
Q 4678 3434 4678 2328 
Q 4678 1225 4090 567 
Q 3503 -91 2522 -91 
Q 1538 -91 948 565 
Q 359 1222 359 2328 
Q 359 3434 948 4092 
Q 1538 4750 2522 4750 
z
" transform="scale(0.015625)"/>
       <path id="DejaVuSans-76" d="M 191 3500 
L 800 3500 
L 1894 563 
L 2988 3500 
L 3597 3500 
L 2284 0 
L 1503 0 
L 191 3500 
z
" transform="scale(0.015625)"/>
       <path id="DejaVuSans-72" d="M 2631 2963 
Q 2534 3019 2420 3045 
Q 2306 3072 2169 3072 
Q 1681 3072 1420 2755 
Q 1159 2438 1159 1844 
L 1159 0 
L 581 0 
L 581 3500 
L 1159 3500 
L 1159 2956 
Q 1341 3275 1631 3429 
Q 1922 3584 2338 3584 
Q 2397 3584 2469 3576 
Q 2541 3569 2628 3553 
L 2631 2963 
z
" transform="scale(0.015625)"/>
       <path id="DejaVuSans-48" d="M 628 4666 
L 1259 4666 
L 1259 2753 
L 3553 2753 
L 3553 4666 
L 4184 4666 
L 4184 0 
L 3553 0 
L 3553 2222 
L 1259 2222 
L 1259 0 
L 628 0 
L 628 4666 
z
" transform="scale(0.015625)"/>
       <path id="DejaVuSans-7a" d="M 353 3500 
L 3084 3500 
L 3084 2975 
L 922 459 
L 3084 459 
L 3084 0 
L 275 0 
L 275 525 
L 2438 3041 
L 353 3041 
L 353 3500 
z
" transform="scale(0.015625)"/>
      </defs>
      <use xlink:href="#DejaVuSans-53"/>
      <use xlink:href="#DejaVuSans-61" x="63.476562"/>
      <use xlink:href="#DejaVuSans-6d" x="124.755859"/>
      <use xlink:href="#DejaVuSans-70" x="222.167969"/>
      <use xlink:href="#DejaVuSans-6c" x="285.644531"/>
      <use xlink:href="#DejaVuSans-65" x="313.427734"/>
      <use xlink:href="#DejaVuSans-20" x="374.951172"/>
      <use xlink:href="#DejaVuSans-4f" x="406.738281"/>
      <use xlink:href="#DejaVuSans-76" x="485.449219"/>
      <use xlink:href="#DejaVuSans-65" x="544.628906"/>
      <use xlink:href="#DejaVuSans-72" x="606.152344"/>
      <use xlink:href="#DejaVuSans-6c" x="647.265625"/>
      <use xlink:href="#DejaVuSans-61" x="675.048828"/>
      <use xlink:href="#DejaVuSans-70" x="736.328125"/>
      <use xlink:href="#DejaVuSans-20" x="799.804688"/>
      <use xlink:href="#DejaVuSans-28" x="831.591797"/>
      <use xlink:href="#DejaVuSans-48" x="870.605469"/>
      <use xlink:href="#DejaVuSans-7a" x="945.800781"/>
      <use xlink:href="#DejaVuSans-29" x="998.291016"/>
     </g>
    </g>
   </g>
   <g id="patch_3">
    <path d="M 134.695941 177.051308 
L 134.695941 25.92 
L 171.875185 25.92 
L 171.875185 177.051308 
z
" clip-path="url(#p706a7f0ac1)" style="fill: #0000ff; opacity: 0.1; stroke: #0000ff; stroke-width: 2; stroke-linejoin: miter"/>
   </g>
   <g id="patch_4">
    <path d="M 209.054428 177.051308 
L 209.054428 25.92 
L 246.233672 25.92 
L 246.233672 177.051308 
z
" clip-path="url(#p706a7f0ac1)" style="fill: #0000ff; opacity: 0.1; stroke: #0000ff; stroke-width: 2; stroke-linejoin: miter"/>
   </g>
   <g id="patch_5">
    <path d="M 357.771403 177.051308 
L 357.771403 25.92 
L 394.950646 25.92 
L 394.950646 177.051308 
z
" clip-path="url(#p706a7f0ac1)" style="fill: #0000ff; opacity: 0.1; stroke: #0000ff; stroke-width: 2; stroke-linejoin: miter"/>
   </g>
   <g id="patch_6">
    <path d="M 283.412915 177.051308 
L 283.412915 25.92 
L 302.002537 25.92 
L 302.002537 177.051308 
z
" clip-path="url(#p706a7f0ac1)" style="fill: #008000; opacity: 0.1; stroke: #008000; stroke-width: 2; stroke-linejoin: miter"/>
   </g>
   <g id="line2d_8">
    <path d="M 97.516697 170.181703 
L 101.234622 169.223721 
L 104.952546 168.798779 
L 108.670471 168.858045 
L 112.388395 169.634531 
L 116.106319 168.794425 
L 119.824244 167.98185 
L 123.542168 167.658104 
L 127.260092 168.375091 
L 130.978017 167.551345 
L 134.695941 167.05379 
L 138.413865 167.231998 
L 142.13179 167.831483 
L 145.849714 166.906296 
L 149.567638 167.314885 
L 153.285563 166.244285 
L 157.003487 165.907858 
L 160.721412 166.863945 
L 164.439336 166.526462 
L 168.15726 166.346307 
L 171.875185 166.855391 
L 175.593109 167.495508 
L 179.311033 167.243838 
L 183.028958 167.212816 
L 186.746882 167.447325 
L 190.464806 168.382119 
L 194.182731 169.338681 
L 197.900655 169.747151 
L 201.61858 169.032066 
L 205.336504 169.648156 
L 209.054428 169.986855 
L 212.772353 167.97766 
L 216.490277 164.308997 
L 220.208201 161.420892 
L 223.926126 159.842765 
L 227.64405 156.959407 
L 231.361974 153.234614 
L 235.079899 150.237972 
L 238.797823 146.71299 
L 242.515748 143.013038 
L 246.233672 140.085616 
L 249.951596 141.969286 
L 253.669521 143.852844 
L 257.387445 142.611725 
L 261.105369 139.019955 
L 264.823294 136.275767 
L 268.541218 134.362805 
L 272.259142 131.664505 
L 275.977067 129.448965 
L 279.694991 128.242584 
L 283.412915 126.162287 
L 287.13084 121.512063 
L 290.848764 118.302296 
L 294.566689 117.169958 
L 298.284613 118.481945 
L 302.002537 117.63735 
L 305.720462 122.764971 
L 309.438386 126.325573 
L 313.15631 123.79053 
L 316.874235 118.901521 
L 320.592159 111.676201 
L 324.310083 104.138079 
L 328.028008 99.750911 
L 331.745932 96.86174 
L 335.463857 94.111727 
L 339.181781 90.682747 
L 342.899705 86.193769 
L 346.61763 80.997633 
L 350.335554 78.290956 
L 354.053478 74.702974 
L 357.771403 71.107933 
L 361.489327 68.115819 
L 365.207251 65.439179 
L 368.925176 61.011532 
L 372.6431 57.872237 
L 376.361025 53.916015 
L 380.078949 48.280511 
L 383.796873 43.96056 
L 387.514798 40.402515 
L 391.232722 36.403577 
L 394.950646 32.789605 
" clip-path="url(#p706a7f0ac1)" style="fill: none; stroke: #1f77b4; stroke-width: 3; stroke-linecap: round"/>
   </g>
   <g id="line2d_9">
    <path d="M 97.516697 167.51429 
L 101.234622 167.258429 
L 104.952546 167.906655 
L 108.670471 168.037396 
L 112.388395 167.359818 
L 116.106319 167.602458 
L 119.824244 167.710109 
L 123.542168 167.663498 
L 127.260092 167.530768 
L 130.978017 167.867456 
L 134.695941 167.302478 
L 138.413865 167.156382 
L 142.13179 166.789931 
L 145.849714 166.880967 
L 149.567638 166.361044 
L 153.285563 166.380372 
L 157.003487 166.39337 
L 160.721412 166.170175 
L 164.439336 166.375656 
L 168.15726 166.921868 
L 171.875185 166.948151 
L 175.593109 165.721192 
L 179.311033 166.611324 
L 183.028958 167.217088 
L 186.746882 166.869615 
L 190.464806 166.471205 
L 194.182731 166.026707 
L 197.900655 165.523374 
L 201.61858 165.844189 
L 205.336504 167.209941 
L 209.054428 167.19186 
L 212.772353 163.320758 
L 216.490277 161.478932 
L 220.208201 160.562601 
L 223.926126 158.969411 
L 227.64405 156.34122 
L 231.361974 153.863814 
L 235.079899 151.515678 
L 238.797823 147.028377 
L 242.515748 143.902433 
L 246.233672 140.841313 
L 249.951596 145.973646 
L 253.669521 150.252063 
L 257.387445 150.781587 
L 261.105369 148.691743 
L 264.823294 147.98568 
L 268.541218 147.194241 
L 272.259142 146.227832 
L 275.977067 147.077686 
L 279.694991 147.42914 
L 283.412915 147.841597 
L 287.13084 148.377833 
L 290.848764 149.065779 
L 294.566689 150.163226 
L 298.284613 152.480911 
L 302.002537 155.509737 
L 305.720462 158.7955 
L 309.438386 160.582997 
L 313.15631 160.949201 
L 316.874235 160.272244 
L 320.592159 157.760067 
L 324.310083 155.975379 
L 328.028008 157.208136 
L 331.745932 157.729675 
L 335.463857 158.648 
L 339.181781 158.196807 
L 342.899705 158.500287 
L 346.61763 158.404329 
L 350.335554 158.210972 
L 354.053478 158.803469 
L 357.771403 160.178778 
L 361.489327 160.158902 
L 365.207251 159.952895 
L 368.925176 160.116324 
L 372.6431 160.325637 
L 376.361025 160.815005 
L 380.078949 160.887659 
L 383.796873 161.432132 
L 387.514798 161.106659 
L 391.232722 161.16747 
L 394.950646 161.022311 
" clip-path="url(#p706a7f0ac1)" style="fill: none; stroke-dasharray: 11.1,4.8; stroke-dashoffset: 0; stroke: #ff7f0e; stroke-width: 3"/>
   </g>
   <g id="patch_7">
    <path d="M 82.645 177.051308 
L 82.645 25.92 
" style="fill: none; stroke: #262626; stroke-width: 2.5; stroke-linejoin: miter; stroke-linecap: square"/>
   </g>
   <g id="patch_8">
    <path d="M 82.645 177.051308 
L 409.822344 177.051308 
" style="fill: none; stroke: #262626; stroke-width: 2.5; stroke-linejoin: miter; stroke-linecap: square"/>
   </g>
  </g>
  <g id="axes_2">
   <g id="patch_9">
    <path d="M 510.902656 177.051308 
L 838.08 177.051308 
L 838.08 25.92 
L 510.902656 25.92 
z
" style="fill: #ffffff"/>
   </g>
   <g id="matplotlib.axis_3">
    <g id="xtick_5">
     <g id="line2d_10">
      <g>
       <use xlink:href="#m533a1b61e9" x="525.774354" y="177.051308" style="fill: #262626; stroke: #262626; stroke-width: 2.5"/>
      </g>
     </g>
     <g id="text_10">
      <!-- 0.0 -->
      <g style="fill: #262626" transform="translate(508.280916 209.267871) scale(0.22 -0.22)">
       <use xlink:href="#DejaVuSans-30"/>
       <use xlink:href="#DejaVuSans-2e" x="63.623047"/>
       <use xlink:href="#DejaVuSans-30" x="95.410156"/>
      </g>
     </g>
    </g>
    <g id="xtick_6">
     <g id="line2d_11">
      <g>
       <use xlink:href="#m533a1b61e9" x="618.722463" y="177.051308" style="fill: #262626; stroke: #262626; stroke-width: 2.5"/>
      </g>
     </g>
     <g id="text_11">
      <!-- 2.5 -->
      <g style="fill: #262626" transform="translate(601.229025 209.267871) scale(0.22 -0.22)">
       <use xlink:href="#DejaVuSans-32"/>
       <use xlink:href="#DejaVuSans-2e" x="63.623047"/>
       <use xlink:href="#DejaVuSans-35" x="95.410156"/>
      </g>
     </g>
    </g>
    <g id="xtick_7">
     <g id="line2d_12">
      <g>
       <use xlink:href="#m533a1b61e9" x="711.670572" y="177.051308" style="fill: #262626; stroke: #262626; stroke-width: 2.5"/>
      </g>
     </g>
     <g id="text_12">
      <!-- 5.0 -->
      <g style="fill: #262626" transform="translate(694.177134 209.267871) scale(0.22 -0.22)">
       <use xlink:href="#DejaVuSans-35"/>
       <use xlink:href="#DejaVuSans-2e" x="63.623047"/>
       <use xlink:href="#DejaVuSans-30" x="95.410156"/>
      </g>
     </g>
    </g>
    <g id="xtick_8">
     <g id="line2d_13">
      <g>
       <use xlink:href="#m533a1b61e9" x="804.618681" y="177.051308" style="fill: #262626; stroke: #262626; stroke-width: 2.5"/>
      </g>
     </g>
     <g id="text_13">
      <!-- 7.5 -->
      <g style="fill: #262626" transform="translate(787.125243 209.267871) scale(0.22 -0.22)">
       <use xlink:href="#DejaVuSans-37"/>
       <use xlink:href="#DejaVuSans-2e" x="63.623047"/>
       <use xlink:href="#DejaVuSans-35" x="95.410156"/>
      </g>
     </g>
    </g>
    <g id="text_14">
     <!-- Time (s) -->
     <g style="fill: #262626" transform="translate(625.701953 236.079433) scale(0.24 -0.24)">
      <use xlink:href="#DejaVuSans-54"/>
      <use xlink:href="#DejaVuSans-69" x="57.958984"/>
      <use xlink:href="#DejaVuSans-6d" x="85.742188"/>
      <use xlink:href="#DejaVuSans-65" x="183.154297"/>
      <use xlink:href="#DejaVuSans-20" x="244.677734"/>
      <use xlink:href="#DejaVuSans-28" x="276.464844"/>
      <use xlink:href="#DejaVuSans-73" x="315.478516"/>
      <use xlink:href="#DejaVuSans-29" x="367.578125"/>
     </g>
    </g>
   </g>
   <g id="matplotlib.axis_4">
    <g id="ytick_4">
     <g id="line2d_14">
      <g>
       <use xlink:href="#mf885ce7a76" x="510.902656" y="168.557949" style="fill: #262626; stroke: #262626; stroke-width: 2.5"/>
      </g>
     </g>
     <g id="text_15">
      <!-- −5 -->
      <g style="fill: #262626" transform="translate(462.969844 176.91623) scale(0.22 -0.22)">
       <defs>
        <path id="DejaVuSans-2212" d="M 678 2272 
L 4684 2272 
L 4684 1741 
L 678 1741 
L 678 2272 
z
" transform="scale(0.015625)"/>
       </defs>
       <use xlink:href="#DejaVuSans-2212"/>
       <use xlink:href="#DejaVuSans-35" x="83.789062"/>
      </g>
     </g>
    </g>
    <g id="ytick_5">
     <g id="line2d_15">
      <g>
       <use xlink:href="#mf885ce7a76" x="510.902656" y="106.569762" style="fill: #262626; stroke: #262626; stroke-width: 2.5"/>
      </g>
     </g>
     <g id="text_16">
      <!-- 0 -->
      <g style="fill: #262626" transform="translate(481.405156 114.928044) scale(0.22 -0.22)">
       <use xlink:href="#DejaVuSans-30"/>
      </g>
     </g>
    </g>
    <g id="ytick_6">
     <g id="line2d_16">
      <g>
       <use xlink:href="#mf885ce7a76" x="510.902656" y="44.581576" style="fill: #262626; stroke: #262626; stroke-width: 2.5"/>
      </g>
     </g>
     <g id="text_17">
      <!-- 5 -->
      <g style="fill: #262626" transform="translate(481.405156 52.939857) scale(0.22 -0.22)">
       <use xlink:href="#DejaVuSans-35"/>
      </g>
     </g>
    </g>
    <g id="text_18">
     <!-- Go/NoGo Overlap (Hz) -->
     <g style="fill: #262626" transform="translate(453.978594 234.614404) rotate(-90) scale(0.24 -0.24)">
      <defs>
       <path id="DejaVuSans-47" d="M 3809 666 
L 3809 1919 
L 2778 1919 
L 2778 2438 
L 4434 2438 
L 4434 434 
Q 4069 175 3628 42 
Q 3188 -91 2688 -91 
Q 1594 -91 976 548 
Q 359 1188 359 2328 
Q 359 3472 976 4111 
Q 1594 4750 2688 4750 
Q 3144 4750 3555 4637 
Q 3966 4525 4313 4306 
L 4313 3634 
Q 3963 3931 3569 4081 
Q 3175 4231 2741 4231 
Q 1884 4231 1454 3753 
Q 1025 3275 1025 2328 
Q 1025 1384 1454 906 
Q 1884 428 2741 428 
Q 3075 428 3337 486 
Q 3600 544 3809 666 
z
" transform="scale(0.015625)"/>
       <path id="DejaVuSans-6f" d="M 1959 3097 
Q 1497 3097 1228 2736 
Q 959 2375 959 1747 
Q 959 1119 1226 758 
Q 1494 397 1959 397 
Q 2419 397 2687 759 
Q 2956 1122 2956 1747 
Q 2956 2369 2687 2733 
Q 2419 3097 1959 3097 
z
M 1959 3584 
Q 2709 3584 3137 3096 
Q 3566 2609 3566 1747 
Q 3566 888 3137 398 
Q 2709 -91 1959 -91 
Q 1206 -91 779 398 
Q 353 888 353 1747 
Q 353 2609 779 3096 
Q 1206 3584 1959 3584 
z
" transform="scale(0.015625)"/>
       <path id="DejaVuSans-2f" d="M 1625 4666 
L 2156 4666 
L 531 -594 
L 0 -594 
L 1625 4666 
z
" transform="scale(0.015625)"/>
       <path id="DejaVuSans-4e" d="M 628 4666 
L 1478 4666 
L 3547 763 
L 3547 4666 
L 4159 4666 
L 4159 0 
L 3309 0 
L 1241 3903 
L 1241 0 
L 628 0 
L 628 4666 
z
" transform="scale(0.015625)"/>
      </defs>
      <use xlink:href="#DejaVuSans-47"/>
      <use xlink:href="#DejaVuSans-6f" x="77.490234"/>
      <use xlink:href="#DejaVuSans-2f" x="138.671875"/>
      <use xlink:href="#DejaVuSans-4e" x="172.363281"/>
      <use xlink:href="#DejaVuSans-6f" x="247.167969"/>
      <use xlink:href="#DejaVuSans-47" x="308.349609"/>
      <use xlink:href="#DejaVuSans-6f" x="385.839844"/>
      <use xlink:href="#DejaVuSans-20" x="447.021484"/>
      <use xlink:href="#DejaVuSans-4f" x="478.808594"/>
      <use xlink:href="#DejaVuSans-76" x="557.519531"/>
      <use xlink:href="#DejaVuSans-65" x="616.699219"/>
      <use xlink:href="#DejaVuSans-72" x="678.222656"/>
      <use xlink:href="#DejaVuSans-6c" x="719.335938"/>
      <use xlink:href="#DejaVuSans-61" x="747.119141"/>
      <use xlink:href="#DejaVuSans-70" x="808.398438"/>
      <use xlink:href="#DejaVuSans-20" x="871.875"/>
      <use xlink:href="#DejaVuSans-28" x="903.662109"/>
      <use xlink:href="#DejaVuSans-48" x="942.675781"/>
      <use xlink:href="#DejaVuSans-7a" x="1017.871094"/>
      <use xlink:href="#DejaVuSans-29" x="1070.361328"/>
     </g>
    </g>
   </g>
   <g id="patch_10">
    <path d="M 562.953597 177.051308 
L 562.953597 25.92 
L 600.132841 25.92 
L 600.132841 177.051308 
z
" clip-path="url(#p600c700d06)" style="fill: #0000ff; opacity: 0.1; stroke: #0000ff; stroke-width: 2; stroke-linejoin: miter"/>
   </g>
   <g id="patch_11">
    <path d="M 637.312085 177.051308 
L 637.312085 25.92 
L 674.491328 25.92 
L 674.491328 177.051308 
z
" clip-path="url(#p600c700d06)" style="fill: #0000ff; opacity: 0.1; stroke: #0000ff; stroke-width: 2; stroke-linejoin: miter"/>
   </g>
   <g id="patch_12">
    <path d="M 786.029059 177.051308 
L 786.029059 25.92 
L 823.208303 25.92 
L 823.208303 177.051308 
z
" clip-path="url(#p600c700d06)" style="fill: #0000ff; opacity: 0.1; stroke: #0000ff; stroke-width: 2; stroke-linejoin: miter"/>
   </g>
   <g id="patch_13">
    <path d="M 711.670572 177.051308 
L 711.670572 25.92 
L 730.260194 25.92 
L 730.260194 177.051308 
z
" clip-path="url(#p600c700d06)" style="fill: #008000; opacity: 0.1; stroke: #008000; stroke-width: 2; stroke-linejoin: miter"/>
   </g>
   <g id="line2d_17">
    <path d="M 525.774354 105.350378 
L 529.492278 105.581237 
L 533.210202 105.769095 
L 536.928127 106.270125 
L 540.646051 106.570711 
L 544.363975 107.130608 
L 548.0819 106.570545 
L 551.799824 106.955705 
L 555.517749 107.122361 
L 559.235673 106.383878 
L 562.953597 106.261201 
L 566.671522 105.860845 
L 570.389446 106.45915 
L 574.10737 106.422763 
L 577.825295 105.831559 
L 581.543219 105.788308 
L 585.261143 106.46402 
L 588.979068 106.797417 
L 592.696992 107.014198 
L 596.414917 107.335196 
L 600.132841 107.235473 
L 603.850765 106.652074 
L 607.56869 106.407292 
L 611.286614 106.353558 
L 615.004538 105.827447 
L 618.722463 106.209033 
L 622.440387 106.506141 
L 626.158311 106.666827 
L 629.876236 106.37191 
L 633.59416 106.388225 
L 637.312085 104.682554 
L 641.030009 81.117957 
L 644.747933 62.143746 
L 648.465858 57.375164 
L 652.183782 58.255551 
L 655.901706 57.461412 
L 659.619631 52.831632 
L 663.337555 46.041872 
L 667.055479 40.411175 
L 670.773404 35.441467 
L 674.491328 32.789605 
L 678.209252 46.216118 
L 681.927177 59.623859 
L 685.645101 66.712988 
L 689.363026 69.553686 
L 693.08095 71.146445 
L 696.798874 72.620596 
L 700.516799 74.688173 
L 704.234723 77.311999 
L 707.952647 79.905113 
L 711.670572 81.190928 
L 715.388496 71.137512 
L 719.10642 62.21246 
L 722.824345 60.330595 
L 726.542269 61.093952 
L 730.260194 62.64645 
L 733.978118 72.474604 
L 737.696042 80.868772 
L 741.413967 85.682641 
L 745.131891 87.267109 
L 748.849815 87.642372 
L 752.56774 87.997951 
L 756.285664 88.351862 
L 760.003588 89.261703 
L 763.721513 89.849025 
L 767.439437 90.626004 
L 771.157362 91.294712 
L 774.875286 91.614702 
L 778.59321 91.786824 
L 782.311135 91.842546 
L 786.029059 91.824173 
L 789.746983 91.96922 
L 793.464908 92.008167 
L 797.182832 92.412868 
L 800.900756 92.570755 
L 804.618681 93.345846 
L 808.336605 93.876111 
L 812.054529 93.843663 
L 815.772454 94.042256 
L 819.490378 94.100414 
L 823.208303 94.888442 
" clip-path="url(#p600c700d06)" style="fill: none; stroke: #1f77b4; stroke-width: 3; stroke-linecap: round"/>
   </g>
   <g id="line2d_18">
    <path d="M 525.774354 106.912566 
L 529.492278 106.81171 
L 533.210202 106.703586 
L 536.928127 107.190535 
L 540.646051 106.689141 
L 544.363975 106.319816 
L 548.0819 106.764067 
L 551.799824 106.842176 
L 555.517749 106.119177 
L 559.235673 106.257137 
L 562.953597 106.234782 
L 566.671522 106.386938 
L 570.389446 106.847986 
L 574.10737 106.874455 
L 577.825295 106.891238 
L 581.543219 107.197026 
L 585.261143 106.74337 
L 588.979068 106.557179 
L 592.696992 106.81466 
L 596.414917 107.084637 
L 600.132841 107.022219 
L 603.850765 106.590666 
L 607.56869 106.434181 
L 611.286614 106.214036 
L 615.004538 105.821541 
L 618.722463 106.109696 
L 622.440387 106.286219 
L 626.158311 105.857882 
L 629.876236 105.892849 
L 633.59416 106.201375 
L 637.312085 107.995543 
L 641.030009 132.699055 
L 644.747933 150.864631 
L 648.465858 153.158418 
L 652.183782 152.176371 
L 655.901706 152.752858 
L 659.619631 156.038207 
L 663.337555 161.012462 
L 667.055479 165.718966 
L 670.773404 168.939889 
L 674.491328 170.181703 
L 678.209252 154.965691 
L 681.927177 140.838528 
L 685.645101 133.163312 
L 689.363026 129.517772 
L 693.08095 126.862031 
L 696.798874 124.776871 
L 700.516799 123.67815 
L 704.234723 122.39508 
L 707.952647 120.651685 
L 711.670572 118.865829 
L 715.388496 108.090514 
L 719.10642 98.505654 
L 722.824345 94.004392 
L 726.542269 91.314922 
L 730.260194 89.353712 
L 733.978118 94.195563 
L 737.696042 98.719451 
L 741.413967 101.134622 
L 745.131891 102.284442 
L 748.849815 103.466014 
L 752.56774 103.904178 
L 756.285664 104.369832 
L 760.003588 104.834786 
L 763.721513 105.138704 
L 767.439437 105.955091 
L 771.157362 106.35801 
L 774.875286 106.660323 
L 778.59321 106.765888 
L 782.311135 106.959642 
L 786.029059 107.410337 
L 789.746983 107.143077 
L 793.464908 107.638128 
L 797.182832 107.251087 
L 800.900756 106.720429 
L 804.618681 106.893487 
L 808.336605 106.655822 
L 812.054529 106.845966 
L 815.772454 107.04832 
L 819.490378 107.047735 
L 823.208303 106.937075 
" clip-path="url(#p600c700d06)" style="fill: none; stroke-dasharray: 11.1,4.8; stroke-dashoffset: 0; stroke: #ff7f0e; stroke-width: 3"/>
   </g>
   <g id="patch_14">
    <path d="M 510.902656 177.051308 
L 510.902656 25.92 
" style="fill: none; stroke: #262626; stroke-width: 2.5; stroke-linejoin: miter; stroke-linecap: square"/>
   </g>
   <g id="patch_15">
    <path d="M 510.902656 177.051308 
L 838.08 177.051308 
" style="fill: none; stroke: #262626; stroke-width: 2.5; stroke-linejoin: miter; stroke-linecap: square"/>
   </g>
   <g id="legend_1">
    <g id="line2d_19">
     <path d="M 773.612813 39.018438 
L 783.612813 39.018438 
L 793.612813 39.018438 
" style="fill: none; stroke: #1f77b4; stroke-width: 3; stroke-linecap: round"/>
    </g>
    <g id="text_19">
     <!-- Go -->
     <g style="fill: #262626" transform="translate(801.612813 42.518438) scale(0.1 -0.1)">
      <use xlink:href="#DejaVuSans-47"/>
      <use xlink:href="#DejaVuSans-6f" x="77.490234"/>
     </g>
    </g>
    <g id="line2d_20">
     <path d="M 773.612813 53.696562 
L 783.612813 53.696562 
L 793.612813 53.696562 
" style="fill: none; stroke-dasharray: 11.1,4.8; stroke-dashoffset: 0; stroke: #ff7f0e; stroke-width: 3"/>
    </g>
    <g id="text_20">
     <!-- NoGo -->
     <g style="fill: #262626" transform="translate(801.612813 57.196562) scale(0.1 -0.1)">
      <use xlink:href="#DejaVuSans-4e"/>
      <use xlink:href="#DejaVuSans-6f" x="74.804688"/>
      <use xlink:href="#DejaVuSans-47" x="135.986328"/>
      <use xlink:href="#DejaVuSans-6f" x="213.476562"/>
     </g>
    </g>
   </g>
  </g>
 </g>
 <defs>
  <clipPath id="p706a7f0ac1">
   <rect x="82.645" y="25.92" width="327.177344" height="151.131308"/>
  </clipPath>
  <clipPath id="p600c700d06">
   <rect x="510.902656" y="25.92" width="327.177344" height="151.131308"/>
  </clipPath>
 </defs>
</svg>
